# xmcd
#
# Track frame offsets:
#	150
#	17580
#	47120
#	68460
#	101040
#
# Disc length: 1730 seconds
# Revision: 0
# Processed by: cddbd v1.5.2PL0 Copyright (c) Steve Scherf et al.
# Submitted via: dBpowerAMP V12.0
#
DISCID=3606c005
DTITLE=Drizabone - Real Love [CD SInge)
DYEAR=1995
DGENRE=Soul
TTITLE0=Real Love (Radio Version)
TTITLE1=Real Love (Nush Glamour Mix)
TTITLE2=Real Love (Masters at Work R& B Mix)
TTITLE3=Real Love (Masters at Work Detached Mix)
TTITLE4=Real Love (Rep Real Rub)
EXTD=
EXTT0=
EXTT1=
EXTT2=
EXTT3=
EXTT4=
PLAYORDER=
